<?xml version="1.0" standalone="no"?>
<!DOCTYPE svg PUBLIC "-//W3C//DTD SVG 20010904//EN"
 "http://www.w3.org/TR/2001/REC-SVG-20010904/DTD/svg10.dtd">
<svg version="1.0" xmlns="http://www.w3.org/2000/svg"
 width="750.000000pt" height="750.000000pt" viewBox="0 0 750.000000 750.000000"
 preserveAspectRatio="xMidYMid meet">

<g transform="translate(0.000000,750.000000) scale(0.100000,-0.100000)"
fill="#000000" stroke="none">
<path d="M6800 7060 c-17 -17 -30 -35 -30 -41 0 -5 -10 -26 -23 -47 -13 -20
-29 -57 -37 -82 -7 -25 -18 -49 -25 -55 -6 -5 -17 -26 -25 -45 -14 -36 -35
-71 -95 -155 -19 -27 -35 -56 -35 -62 0 -7 -7 -13 -15 -13 -8 0 -15 -6 -15
-12 -1 -7 -19 -29 -42 -48 -22 -19 -58 -52 -80 -72 -22 -21 -45 -38 -50 -38
-6 0 -31 -17 -57 -38 -25 -21 -68 -47 -96 -57 -27 -10 -52 -21 -55 -24 -8 -10
-134 -53 -152 -53 -10 1 -20 -3 -23 -8 -3 -5 -31 -12 -63 -15 -31 -4 -97 -20
-146 -36 -49 -16 -93 -29 -98 -29 -5 0 -28 -9 -51 -19 -24 -11 -56 -23 -72
-27 -17 -4 -32 -10 -35 -13 -14 -17 -90 -69 -122 -84 -20 -10 -40 -22 -43 -27
-3 -6 -14 -10 -25 -10 -10 0 -20 -7 -24 -15 -3 -8 -10 -15 -16 -15 -5 0 -32
-22 -59 -50 -27 -27 -56 -50 -64 -50 -8 0 -20 -6 -27 -14 -6 -8 -18 -12 -26
-9 -8 3 -14 0 -14 -6 0 -14 -476 -16 -484 -2 -8 13 -548 20 -656 8 -179 -19
-328 -38 -350 -43 -14 -4 -34 -8 -45 -10 -35 -4 -214 -53 -233 -63 -10 -5 -49
-15 -85 -21 -37 -7 -70 -16 -73 -21 -3 -5 -29 -9 -59 -9 -61 0 -96 -11 -127
-40 -49 -45 -244 -13 -413 69 -55 27 -131 63 -170 80 -38 17 -81 38 -95 46
-14 8 -41 22 -60 31 -84 40 -139 65 -190 88 -30 14 -66 32 -80 41 -14 8 -36
19 -50 25 -14 5 -33 14 -42 20 -10 5 -26 14 -35 20 -26 14 -107 53 -113 54 -5
1 -133 55 -197 82 -17 8 -35 14 -40 14 -5 0 -26 9 -48 20 -22 11 -48 20 -58
20 -10 0 -31 7 -46 15 -39 20 -110 45 -146 51 -16 3 -42 12 -57 20 -15 8 -34
14 -43 14 -9 0 -49 11 -88 24 -40 14 -115 30 -167 35 -158 17 -146 15 -315 52
-33 7 -63 17 -66 22 -13 19 -312 -6 -392 -32 -37 -12 -37 -13 -37 -66 0 -53 0
-53 43 -73 23 -11 57 -23 76 -27 l33 -7 -46 -42 c-61 -55 -106 -143 -106 -207
0 -47 1 -48 35 -55 39 -7 138 4 162 19 5 4 8 -17 5 -54 -5 -68 6 -89 49 -89
24 0 97 37 119 60 21 22 74 60 83 60 13 0 45 -85 73 -195 10 -38 21 -72 24
-75 4 -3 12 -27 20 -55 7 -27 23 -67 36 -87 13 -21 24 -41 24 -46 0 -5 9 -17
20 -27 11 -10 20 -22 20 -27 0 -12 61 -99 112 -162 24 -28 46 -55 50 -61 4 -5
30 -37 57 -70 55 -67 70 -81 277 -276 27 -25 66 -55 87 -68 20 -12 37 -27 37
-32 0 -5 7 -9 15 -9 9 0 18 -7 21 -15 4 -8 11 -15 18 -15 6 0 21 -15 34 -34
19 -28 23 -46 21 -98 -1 -51 4 -74 25 -118 52 -108 65 -126 138 -197 108 -106
133 -143 141 -218 7 -57 11 -69 30 -98 9 -15 17 -29 17 -33 0 -12 73 -89 97
-102 23 -13 31 -49 14 -67 -8 -10 -13 -47 -27 -230 -4 -44 -10 -84 -13 -90 -4
-5 -6 -21 -5 -35 2 -14 -1 -34 -6 -45 -11 -23 -30 -505 -23 -552 6 -40 -15
-263 -26 -277 -5 -6 -11 -33 -15 -61 -10 -77 -27 -149 -40 -164 -7 -9 -12
-101 -14 -270 -3 -215 0 -278 17 -396 23 -162 32 -192 63 -204 47 -19 63 -24
71 -23 4 1 7 -2 7 -8 0 -5 7 -10 16 -10 9 0 28 -9 42 -19 15 -10 30 -19 35
-19 15 -1 116 -42 154 -62 21 -11 45 -20 54 -20 9 0 22 -7 29 -15 7 -9 15 -14
17 -11 2 2 29 -5 58 -15 30 -10 66 -19 79 -19 14 0 27 -4 30 -8 3 -5 40 -17
83 -26 43 -10 89 -20 103 -23 14 -4 31 -5 39 -4 8 2 33 -2 55 -8 49 -13 327
-41 408 -41 31 0 69 -5 85 -12 15 -6 75 -12 133 -13 97 -2 277 -19 475 -46
127 -17 1477 -6 1740 14 116 9 226 19 245 22 19 4 55 11 80 15 75 14 233 51
265 62 17 6 55 16 86 23 87 20 202 60 304 106 28 13 52 24 55 24 22 6 88 40
103 53 9 8 17 12 17 8 0 -4 26 11 58 33 32 23 62 41 68 41 6 0 23 14 39 30 16
17 34 30 39 30 6 0 56 33 111 74 117 87 94 68 224 184 58 50 117 97 133 104
15 7 28 17 28 21 0 12 27 37 40 37 6 0 14 8 17 17 4 10 17 29 30 42 12 14 27
39 33 55 7 17 18 46 26 64 16 37 19 179 5 226 -5 17 -20 78 -32 136 -13 58
-26 107 -30 110 -3 3 -12 23 -19 45 -7 22 -20 58 -30 80 -40 89 -60 135 -60
140 0 5 -75 125 -90 142 -5 7 -10 16 -10 20 0 4 -12 22 -26 38 -14 17 -30 39
-35 50 -16 36 -45 78 -75 109 -35 35 -57 96 -65 181 -30 315 -37 359 -65 399
-8 11 -14 26 -14 34 0 7 -11 37 -24 65 -13 29 -29 68 -36 87 -7 19 -19 42 -26
50 -6 8 -20 31 -30 51 -11 20 -35 67 -54 104 -43 84 -105 155 -159 180 l-41
20 0 100 c0 97 -14 217 -28 239 -3 6 -7 17 -8 26 -18 128 -44 205 -85 253 -11
12 -40 49 -67 82 -53 68 -98 119 -126 146 -19 18 -19 19 7 70 15 28 27 55 27
60 0 6 9 20 20 32 12 12 23 33 27 47 3 14 16 43 28 65 13 22 31 67 40 100 10
33 21 64 26 70 5 5 9 17 9 26 0 9 7 19 15 23 8 3 15 12 15 21 0 9 22 39 50 68
27 29 50 57 50 64 0 7 6 16 14 20 7 4 23 28 34 53 25 54 83 117 115 125 20 5
61 56 62 77 0 3 3 10 8 14 4 4 7 43 7 87 0 86 12 123 59 174 90 99 105 124
117 197 10 65 12 68 19 39 4 -18 11 -33 16 -33 5 0 9 -8 9 -19 0 -10 30 -50
66 -90 61 -65 70 -71 107 -71 l40 0 -6 51 c-4 28 -12 57 -18 65 -20 24 -3 26
39 4 24 -13 54 -20 74 -18 l33 3 0 65 c0 56 -4 70 -29 103 l-28 37 51 0 c50 0
51 0 51 31 0 23 -9 40 -33 63 -151 140 -256 221 -338 260 -45 21 -70 26 -133
26 -72 0 -78 -2 -106 -30z m117 -390 c-6 -79 -31 -137 -77 -180 -32 -30 -86
-106 -97 -135 -7 -16 -13 -70 -16 -118 -3 -84 -5 -90 -35 -118 -18 -17 -36
-28 -41 -25 -12 8 -75 -64 -100 -115 -35 -72 -53 -99 -103 -153 -27 -28 -48
-54 -48 -59 0 -5 -9 -20 -19 -33 -11 -14 -27 -50 -37 -82 -9 -31 -21 -61 -26
-67 -4 -5 -8 -17 -8 -27 0 -10 -4 -18 -8 -18 -5 0 -14 -19 -21 -42 -7 -24 -19
-50 -26 -58 -7 -8 -20 -34 -31 -57 -10 -24 -21 -43 -25 -43 -4 0 -10 -12 -14
-27 -3 -16 -13 -38 -20 -50 -25 -38 -50 -24 -173 96 -69 68 -110 100 -160 123
-37 17 -73 38 -80 45 -7 7 -20 13 -27 13 -38 0 -24 47 40 131 25 33 45 64 45
69 0 6 5 10 10 10 6 0 24 14 42 30 17 17 34 30 39 30 4 0 15 8 25 18 10 9 20
17 23 18 3 0 19 6 34 12 16 7 32 12 36 12 4 0 18 11 31 25 13 14 29 25 37 25
7 0 21 8 31 18 22 20 50 39 77 51 11 5 33 23 49 40 17 17 35 31 42 31 7 0 17
6 21 14 9 15 160 96 180 96 7 0 13 6 13 13 0 7 19 31 43 53 53 50 151 166 197
233 19 29 45 65 58 80 12 16 22 33 22 39 0 5 7 12 15 16 8 3 15 13 15 21 0 25
50 125 62 125 7 0 9 -26 5 -80z m-6019 -624 c5 -3 48 -10 97 -16 49 -6 100
-17 114 -24 86 -44 179 -86 189 -86 7 0 36 -13 65 -30 30 -16 61 -30 70 -30 9
0 17 -4 17 -10 0 -5 7 -10 17 -10 20 0 123 -52 123 -62 0 -4 5 -8 11 -8 6 0
24 -10 40 -22 15 -13 57 -43 93 -68 36 -25 68 -52 71 -60 14 -35 344 -257 359
-242 3 3 14 -2 23 -10 10 -8 33 -21 51 -29 17 -8 32 -17 32 -21 0 -5 6 -8 14
-8 7 0 45 -16 82 -35 68 -34 72 -35 194 -35 92 0 120 -3 107 -11 -10 -6 -22
-22 -28 -36 -5 -14 -18 -27 -29 -30 -11 -3 -22 -14 -25 -24 -4 -10 -10 -19
-15 -19 -11 0 -112 -128 -126 -160 -7 -14 -21 -35 -33 -47 -11 -12 -21 -25
-21 -28 0 -3 -13 -24 -30 -47 -16 -22 -30 -46 -30 -53 0 -6 -16 -30 -35 -52
-19 -23 -35 -46 -35 -51 0 -6 -6 -17 -13 -24 -7 -7 -21 -33 -32 -58 -11 -25
-24 -50 -30 -56 -41 -45 -60 -73 -76 -110 -36 -81 -46 -71 -60 58 -5 51 -14
103 -19 115 -12 28 -71 65 -130 82 -56 16 -70 27 -70 57 0 12 -4 26 -10 29 -5
3 -7 19 -3 36 6 33 -13 79 -33 79 -12 0 -35 9 -119 45 -16 7 -51 21 -77 30
-26 10 -55 26 -64 36 -9 11 -23 19 -31 19 -7 0 -13 5 -13 10 0 6 -5 16 -10 23
-6 7 -31 44 -55 82 -45 70 -96 114 -165 143 -19 8 -53 27 -77 43 -23 16 -46
29 -51 29 -5 0 -22 12 -37 26 -24 22 -30 37 -33 86 -4 46 -10 64 -31 86 -23
24 -107 97 -164 142 -11 8 -25 21 -32 28 -8 6 -18 12 -23 12 -13 0 -62 65 -62
82 0 8 7 24 16 37 12 17 15 37 12 79 -4 48 -10 60 -36 82 l-32 26 28 10 c27
10 154 10 170 0z m3349 -319 c64 -1 99 -5 93 -11 -6 -6 -10 -36 -10 -68 0 -58
0 -59 58 -114 31 -30 75 -68 98 -84 52 -37 92 -89 126 -165 25 -56 29 -60 64
-63 l37 -3 -6 89 c-5 86 -7 92 -51 156 -25 37 -46 70 -46 72 0 3 -16 25 -35
48 -19 24 -35 48 -35 54 0 6 -18 26 -40 45 -22 19 -40 36 -40 39 0 3 12 3 28
0 15 -3 152 -7 305 -9 263 -3 277 -5 277 -22 0 -16 9 -20 53 -24 46 -4 214
-61 227 -78 15 -18 134 -61 204 -73 21 -4 49 -18 63 -32 13 -13 28 -24 34 -24
10 0 51 -21 59 -31 3 -3 28 -15 56 -25 51 -19 124 -74 124 -94 0 -5 3 -10 8
-10 4 0 42 -34 86 -75 59 -56 87 -76 115 -81 20 -3 46 -9 58 -12 25 -8 243
-265 243 -288 0 -8 7 -17 15 -20 8 -4 12 -10 9 -15 -3 -6 0 -16 6 -24 7 -8 10
-21 7 -30 -4 -8 -2 -17 3 -20 5 -3 12 -31 16 -63 3 -31 13 -73 21 -92 12 -29
20 -191 11 -227 -1 -4 2 -27 6 -50 7 -37 12 -43 43 -54 31 -10 133 -102 133
-120 0 -10 101 -192 116 -209 7 -8 16 -28 20 -44 4 -16 20 -54 35 -85 16 -31
29 -63 29 -71 0 -8 8 -31 19 -50 24 -45 30 -75 42 -202 12 -126 13 -98 -10
-313 -27 -249 -28 -235 13 -235 40 0 42 3 51 113 4 42 9 77 13 77 10 0 42 -33
42 -44 0 -6 13 -25 28 -43 15 -17 36 -46 47 -64 11 -18 25 -40 30 -49 6 -8 28
-42 49 -75 22 -33 45 -73 51 -90 6 -16 25 -59 42 -95 40 -82 109 -286 123
-365 6 -33 14 -73 17 -88 5 -27 -7 -66 -44 -144 -23 -48 -189 -205 -263 -248
-9 -6 -32 -25 -51 -44 -50 -51 -208 -174 -260 -204 -25 -15 -56 -38 -69 -52
-13 -14 -29 -25 -35 -25 -6 0 -34 -16 -61 -35 -27 -19 -55 -35 -63 -35 -8 0
-19 -6 -25 -14 -10 -13 -53 -33 -241 -112 -49 -21 -97 -34 -124 -34 -28 0 -68
-11 -110 -31 -36 -17 -106 -40 -156 -50 -49 -10 -106 -23 -125 -28 -134 -37
-459 -62 -865 -68 -425 -6 -1216 13 -1355 33 -63 9 -131 17 -151 19 -20 1 -41
5 -45 8 -5 2 -85 8 -179 12 -93 4 -201 11 -240 16 -38 5 -142 18 -230 29 -88
11 -171 25 -184 31 -13 5 -26 8 -29 5 -2 -3 -16 1 -31 8 -14 8 -46 17 -71 21
-54 8 -101 22 -155 45 -153 67 -187 80 -200 80 -8 0 -15 5 -15 10 0 6 -6 10
-13 10 -7 0 -48 18 -92 40 -44 22 -84 40 -90 40 -20 0 -42 37 -48 81 -3 24
-12 78 -18 119 -19 109 -18 488 1 567 8 35 18 63 22 63 4 0 8 12 8 28 0 15 7
61 15 102 9 41 18 157 22 258 3 100 10 185 14 188 5 3 9 16 9 28 0 21 6 24 60
29 33 4 73 4 89 1 17 -4 46 -3 65 0 30 6 39 14 61 59 28 58 55 193 55 277 0
61 54 310 94 435 14 44 31 98 37 120 6 22 17 54 25 70 7 17 15 44 19 60 4 17
13 44 20 60 7 17 25 55 38 85 14 30 37 87 52 125 15 39 31 74 36 80 5 5 9 19
9 32 0 13 4 31 9 41 5 9 21 46 36 82 14 36 31 76 37 90 6 14 14 34 18 45 13
32 49 112 97 215 51 109 54 116 84 190 12 30 28 71 36 90 8 19 18 44 22 55 4
11 29 63 55 115 36 74 46 106 46 143 0 46 1 49 40 66 22 10 58 34 79 54 28 26
45 34 60 30 12 -3 27 -1 34 5 6 5 42 15 78 21 36 6 79 18 95 25 16 8 72 24
124 36 52 11 109 25 125 30 17 5 109 16 205 25 96 9 186 20 200 25 14 5 48 6
75 3 28 -3 96 -6 152 -6z"/>
<path d="M5377 5453 c-3 -10 -3 -76 1 -148 l7 -130 45 3 c96 6 123 86 77 222
l-22 65 -52 3 c-42 2 -52 0 -56 -15z"/>
<path d="M3700 5394 c0 -9 -11 -14 -30 -14 -25 0 -30 -4 -30 -25 0 -18 -5 -25
-20 -25 -17 0 -20 -7 -20 -38 0 -39 14 -56 103 -123 15 -11 27 -27 27 -35 0
-8 5 -14 10 -14 6 0 15 -11 20 -25 11 -29 20 -41 72 -97 36 -39 37 -40 93 -33
36 5 59 13 64 24 16 28 4 113 -22 171 -30 66 -54 98 -133 182 -51 54 -64 63
-97 64 -25 1 -37 -3 -37 -12z"/>
<path d="M5820 5090 c0 -5 -19 -10 -42 -10 -55 0 -176 -26 -194 -41 -8 -7 -17
-9 -21 -6 -14 14 -46 -18 -74 -76 -31 -63 -53 -197 -32 -197 5 0 10 -20 12
-44 2 -41 38 -144 111 -316 38 -90 60 -186 73 -312 l4 -47 -29 6 c-16 3 -39 1
-51 -5 -29 -14 -155 -42 -188 -42 -14 0 -29 -4 -35 -9 -5 -5 -58 -15 -119 -21
-151 -15 -224 -27 -238 -38 -7 -5 -37 -13 -67 -17 -30 -4 -74 -18 -98 -32 -44
-25 -82 -24 -82 3 0 8 -6 14 -13 14 -8 0 -22 9 -31 19 -9 10 -47 34 -84 52
-168 82 -223 155 -267 357 -13 56 -24 86 -36 93 -10 5 -16 15 -14 22 3 6 -4
37 -15 67 -11 30 -20 63 -20 72 0 10 -3 18 -8 18 -4 0 -16 15 -26 34 -25 47
-106 128 -147 147 -77 37 -123 44 -274 43 -170 -1 -337 -19 -395 -41 -8 -4
-26 -7 -40 -8 -49 -4 -185 -38 -191 -47 -4 -6 -28 -13 -55 -16 -27 -3 -54 -10
-61 -16 -7 -6 -37 -29 -67 -51 -52 -37 -56 -43 -56 -82 0 -45 1 -46 75 -59 47
-8 97 -31 108 -50 4 -8 15 -14 22 -14 8 0 15 -4 15 -9 0 -5 19 -11 42 -15 22
-4 57 -19 77 -35 20 -15 59 -34 86 -41 28 -7 55 -16 60 -21 25 -18 158 -49
213 -49 33 0 62 -5 64 -10 2 -7 64 -14 151 -19 88 -5 153 -13 159 -19 7 -7 22
-12 34 -12 13 0 25 -4 29 -9 3 -6 26 -13 50 -17 34 -5 60 -19 111 -63 78 -65
95 -88 76 -100 -16 -10 -42 -58 -42 -77 0 -8 7 -14 15 -14 10 0 15 -10 15 -30
0 -30 1 -30 53 -29 29 1 68 -2 87 -6 47 -10 160 -65 160 -77 0 -6 7 -8 15 -5
8 4 17 2 20 -3 3 -4 18 -6 34 -4 l29 5 -5 -84 c-4 -57 -2 -86 6 -91 6 -4 11
-20 11 -36 0 -19 10 -38 27 -55 24 -22 37 -25 99 -25 64 0 96 8 154 39 11 6
24 -2 47 -28 18 -20 33 -39 33 -43 0 -3 24 -30 53 -60 30 -30 58 -61 63 -69
14 -24 94 -56 156 -64 32 -3 60 -11 63 -16 8 -12 155 -12 155 1 0 6 5 10 12
10 22 0 97 89 107 127 5 21 13 75 17 120 l6 82 38 6 c60 10 94 63 91 143 -1
27 2 42 10 42 18 0 2 106 -24 159 -12 25 -34 58 -49 73 -31 30 -33 40 -17 71
14 24 13 180 -1 327 -7 81 -6 96 7 104 8 4 23 16 33 26 10 10 41 21 69 25 28
4 53 10 56 15 2 4 18 6 35 4 19 -2 29 0 25 6 -3 6 5 14 19 20 14 5 26 16 26
24 0 9 9 20 20 26 11 6 20 17 20 26 0 8 7 17 15 20 8 4 13 10 10 14 -3 5 -1
11 4 14 5 3 14 28 21 55 6 27 18 52 26 55 8 3 14 12 14 19 0 19 35 49 45 40 4
-5 5 -2 1 5 -4 7 -1 15 8 18 11 4 16 19 16 50 l0 44 -55 0 c-38 0 -55 4 -55
13 0 22 -156 67 -232 67 -39 0 -68 -4 -68 -10z m-220 -155 c0 -2 -9 -19 -20
-37 -13 -21 -20 -51 -20 -83 0 -36 -3 -46 -10 -35 -16 24 -11 67 12 115 18 38
38 59 38 40z m270 -65 c17 -17 30 -35 30 -40 0 -18 -74 -10 -100 9 -24 19 -24
20 -6 40 26 28 41 26 76 -9z m-2284 -293 c-20 -34 -26 -57 -26 -105 0 -34 -4
-62 -9 -62 -14 0 -81 79 -81 96 0 34 39 79 109 126 37 25 40 1 7 -55z m226
-19 c-29 -34 -111 -13 -97 24 4 9 23 22 43 30 36 14 38 13 53 -11 15 -23 15
-28 1 -43z"/>
<path d="M6220 3699 c0 -40 5 -49 55 -97 69 -67 70 -83 13 -125 -18 -13 -21
-24 -19 -79 1 -24 9 -46 22 -59 20 -20 20 -21 2 -35 -10 -8 -29 -17 -43 -20
-86 -20 -90 -23 -90 -64 0 -35 23 -92 52 -127 6 -7 8 -19 5 -27 -7 -19 -91
-46 -143 -46 -48 0 -54 -8 -54 -80 0 -41 -5 -55 -32 -85 -26 -31 -37 -36 -67
-34 -20 2 -42 7 -49 12 -7 5 -30 7 -52 4 -36 -5 -43 -1 -80 34 -22 21 -44 39
-49 39 -5 0 -16 6 -23 13 -33 32 -91 49 -152 45 -80 -5 -126 -29 -159 -81 -32
-50 -124 -144 -132 -135 -7 6 17 86 36 124 6 11 9 42 7 70 -3 46 -5 49 -31 52
-34 4 -84 -18 -118 -52 -13 -13 -43 -34 -66 -46 -24 -12 -43 -26 -43 -31 0 -5
-10 -14 -22 -19 -13 -6 -43 -26 -68 -44 -25 -19 -51 -35 -57 -35 -7 -1 -13 -5
-13 -11 0 -5 -15 -17 -32 -26 -18 -9 -50 -30 -70 -46 -21 -16 -38 -26 -38 -21
0 8 28 53 40 63 3 3 17 23 31 45 15 22 52 60 82 85 54 43 56 47 57 93 l0 47
-43 0 c-24 0 -47 -3 -51 -7 -4 -5 -29 -13 -54 -20 -26 -6 -85 -26 -132 -43
-84 -32 -107 -42 -223 -95 -33 -15 -60 -25 -62 -23 -11 10 192 215 247 249 13
8 27 75 21 99 -5 17 -14 20 -62 20 -37 0 -66 -6 -87 -19 -17 -10 -41 -22 -55
-26 -13 -4 -59 -22 -102 -41 -43 -19 -80 -34 -83 -34 -11 0 82 83 121 107 35
23 69 48 113 84 6 5 12 25 12 43 0 29 -5 36 -31 45 -43 15 -75 14 -102 -3 -12
-8 -51 -16 -87 -19 -43 -3 -83 -13 -117 -31 -29 -14 -57 -26 -62 -26 -5 0 -22
-5 -38 -12 -15 -7 -32 -13 -38 -13 -5 -1 -17 -5 -25 -8 -8 -3 -26 -7 -40 -9
-22 -3 -26 -9 -32 -53 -10 -77 -9 -185 3 -235 13 -59 52 -141 92 -194 18 -24
39 -53 47 -66 8 -13 31 -37 50 -54 19 -17 45 -42 59 -56 14 -14 35 -32 47 -40
12 -8 33 -24 48 -34 39 -28 93 -35 271 -35 228 0 476 23 495 48 3 3 21 14 40
24 93 47 142 77 192 120 30 26 60 47 67 47 6 0 11 6 11 13 0 8 11 20 25 27 14
7 25 17 25 22 0 5 17 31 38 58 57 75 123 98 164 56 8 -7 28 -21 45 -29 16 -9
44 -32 61 -51 17 -20 38 -36 46 -36 8 0 17 -4 20 -9 3 -5 31 -12 61 -16 57 -7
69 -21 40 -45 -8 -7 -15 -26 -15 -43 0 -25 -13 -43 -68 -96 -88 -85 -137 -123
-187 -144 -43 -19 -49 -23 -86 -49 -21 -15 -119 -47 -159 -51 -8 -1 -46 -18
-85 -38 -131 -68 -316 -86 -485 -46 -36 9 -93 19 -128 23 l-63 7 3 -39 c3 -37
5 -39 41 -42 20 -2 37 -7 37 -12 0 -4 9 -6 20 -3 11 3 28 -1 37 -8 12 -11 62
-14 222 -13 257 1 281 2 281 14 0 6 7 10 15 10 16 0 49 16 75 37 9 7 45 20 80
28 36 9 72 19 80 23 8 3 20 7 25 8 26 4 95 40 95 50 0 6 6 11 13 11 19 0 107
45 107 55 0 4 4 8 10 8 13 0 50 31 127 106 43 41 63 68 63 85 0 13 7 37 15 53
8 15 15 41 15 57 l0 29 65 0 c75 0 92 9 173 85 55 52 152 167 152 181 0 15 34
84 41 84 5 0 16 17 26 38 9 20 27 48 40 61 20 23 22 35 22 130 0 99 -12 206
-26 241 -3 8 -7 17 -8 20 -9 36 -23 62 -49 98 -63 87 -70 93 -114 99 l-42 6 0
-44z"/>
<path d="M3738 3253 c23 -2 61 -2 85 0 23 2 4 4 -43 4 -47 0 -66 -2 -42 -4z"/>
<path d="M3643 3243 c9 -2 23 -2 30 0 6 3 -1 5 -18 5 -16 0 -22 -2 -12 -5z"/>
</g>
</svg>
